<?xml version="1.0" standalone="no"?>
<!DOCTYPE svg PUBLIC "-//W3C//DTD SVG 20010904//EN"
 "http://www.w3.org/TR/2001/REC-SVG-20010904/DTD/svg10.dtd">
<svg version="1.0" xmlns="http://www.w3.org/2000/svg"
 width="576.000000pt" height="576.000000pt" viewBox="0 0 576.000000 576.000000"
 preserveAspectRatio="xMidYMid meet">
<metadata>
Created by potrace 1.14, written by Peter Selinger 2001-2017
</metadata>
<g transform="translate(0.000000,576.000000) scale(0.100000,-0.100000)"
fill="#000000" stroke="none">
<path d="M223 5105 c-83 -25 -153 -84 -195 -165 l-23 -45 -2 -1760 c-1 -1247
1 -1767 9 -1785 6 -14 12 -31 14 -38 5 -27 71 -102 114 -130 55 -36 111 -52
199 -57 120 -7 235 -15 281 -20 25 -3 74 -8 110 -11 36 -3 76 -7 90 -9 14 -2
50 -6 80 -10 30 -3 71 -8 90 -11 19 -2 49 -6 65 -8 17 -3 44 -7 60 -9 17 -3
50 -8 75 -11 43 -6 61 -9 120 -21 14 -2 39 -7 55 -10 309 -53 747 -176 937
-263 26 -12 49 -22 52 -22 3 0 38 -16 78 -36 83 -41 154 -50 203 -27 33 16 73
67 80 102 4 20 6 106 4 141 -1 8 -1 40 0 70 1 30 1 95 1 143 0 48 2 92 5 98 4
5 1 9 -5 9 -6 0 -8 4 -5 10 3 5 6 38 5 72 -1 35 0 79 1 98 0 19 1 41 0 48 -1
23 -2 137 -2 267 0 72 0 137 0 145 -1 8 -1 40 0 70 1 30 1 95 1 143 0 48 2 92
5 98 4 5 1 9 -5 9 -6 0 -8 4 -5 10 3 5 6 38 5 72 -1 35 0 79 1 98 0 19 1 41 0
48 -1 23 -2 137 -2 267 0 72 0 137 0 145 -1 8 -1 40 0 70 2 92 2 234 1 255 -2
27 -2 24 -1 170 1 72 1 155 0 185 0 30 0 60 1 65 1 6 1 25 0 44 -5 83 -5 161
0 161 4 0 4 156 -1 170 -1 3 -1 8 0 13 2 10 2 59 1 182 -1 55 -1 105 0 110 1
6 1 44 0 85 0 41 -1 82 -1 90 0 40 -24 101 -48 123 -64 62 -517 269 -641 293
-14 3 -43 11 -65 19 -51 18 -142 45 -175 51 -14 3 -59 14 -100 24 -75 19 -238
55 -295 65 -16 2 -57 10 -90 16 -33 6 -73 12 -90 14 -16 2 -39 6 -50 8 -18 4
-54 10 -150 23 -16 2 -55 7 -85 10 -30 4 -66 8 -80 9 -84 10 -188 21 -305 31
-140 12 -282 12 -322 -1z"/>
<path d="M5317 5114 c-2 -2 -39 -6 -83 -8 -43 -3 -99 -8 -124 -10 -25 -3 -72
-8 -105 -11 -33 -3 -73 -7 -90 -9 -16 -2 -59 -7 -95 -11 -36 -4 -87 -11 -114
-16 -26 -5 -52 -6 -57 -3 -5 3 -9 0 -9 -6 0 -6 -4 -9 -9 -6 -5 3 -33 1 -62 -4
-30 -6 -70 -13 -89 -16 -46 -7 -79 -13 -110 -19 -35 -7 -120 -24 -150 -31 -14
-3 -36 -7 -50 -10 -14 -3 -79 -18 -145 -35 -361 -91 -671 -210 -886 -341 -67
-41 -99 -87 -99 -141 0 -12 0 -57 0 -100 1 -42 -1 -80 -3 -85 -3 -4 -1 -16 3
-27 4 -11 4 -29 0 -41 -5 -11 -5 -39 0 -62 4 -23 5 -42 1 -42 -3 0 -5 -26 -3
-57 1 -32 2 -103 1 -158 0 -55 0 -107 0 -115 3 -46 0 -114 -5 -121 -3 -5 -2
-9 3 -9 4 0 6 -43 3 -96 -3 -52 -3 -102 1 -111 3 -8 2 -37 -1 -64 -4 -27 -4
-49 -1 -49 3 0 4 -43 1 -96 -3 -52 -3 -102 1 -111 3 -8 2 -37 -1 -64 -4 -27
-4 -49 -1 -49 3 0 4 -43 1 -96 -3 -52 -3 -102 1 -111 3 -8 2 -37 -1 -64 -4
-27 -2 -49 2 -49 5 0 7 -4 3 -9 -3 -6 -5 -41 -5 -78 1 -95 1 -92 -2 -151 -2
-28 -1 -52 2 -52 6 0 2 -170 -4 -187 -3 -7 -1 -15 5 -18 5 -4 7 -10 4 -15 -5
-8 -9 -143 -5 -165 1 -5 2 -13 2 -16 -1 -11 -2 -116 -2 -192 1 -42 -1 -80 -3
-85 -3 -4 -1 -16 3 -27 4 -11 4 -29 0 -41 -5 -11 -5 -39 0 -62 4 -23 5 -42 1
-42 -3 0 -5 -26 -3 -57 1 -32 2 -103 1 -158 0 -55 0 -107 0 -115 3 -46 0 -114
-5 -121 -3 -5 0 -9 6 -9 6 0 9 -4 6 -8 -5 -8 -7 -136 -5 -250 3 -90 60 -151
146 -157 42 -3 64 3 142 41 51 24 98 44 105 44 7 0 16 4 22 9 8 7 164 70 189
75 6 1 53 16 106 34 95 31 232 69 279 78 14 3 34 8 45 11 11 4 25 8 30 9 6 1
21 4 35 7 14 3 70 15 125 27 55 11 114 23 130 25 17 3 53 10 80 15 28 5 68 12
90 15 23 3 50 7 60 9 11 2 63 9 115 16 52 6 106 13 119 15 14 3 52 7 85 10 34
4 79 9 101 11 22 3 67 7 100 10 33 2 87 6 120 8 33 3 94 7 135 10 111 8 147
16 193 41 76 44 136 116 156 190 4 11 6 812 6 1780 l0 1760 -24 45 c-33 64
-88 117 -151 148 -48 23 -69 26 -157 28 -57 0 -104 -1 -106 -2z"/>
</g>
</svg>
